<mxfile host="app.diagrams.net" modified="2022-12-24T08:50:38.069Z" agent="5.0 (Windows NT 10.0; Win64; x64) AppleWebKit/537.36 (KHTML, like Gecko) Chrome/108.0.0.0 Safari/537.36" etag="dMOsMnI_sd6gbvka6qei" version="20.7.4" type="github">
  <diagram id="evIK6hi9-H3vUto9CSPa" name="Страница 1">
    <mxGraphModel dx="1434" dy="796" grid="1" gridSize="10" guides="1" tooltips="1" connect="1" arrows="1" fold="1" page="1" pageScale="1" pageWidth="2339" pageHeight="3300" math="0" shadow="0">
      <root>
        <mxCell id="0" />
        <mxCell id="1" parent="0" />
        <mxCell id="5BoTdSPKw78EXAaD1zw3-24" style="edgeStyle=orthogonalEdgeStyle;curved=1;rounded=0;orthogonalLoop=1;jettySize=auto;html=1;endArrow=none;endFill=0;" edge="1" parent="1" source="R_8RCk8jp2wtUIdCuoWz-1" target="R_8RCk8jp2wtUIdCuoWz-5">
          <mxGeometry relative="1" as="geometry">
            <Array as="points">
              <mxPoint x="490" y="530" />
              <mxPoint x="490" y="580" />
            </Array>
          </mxGeometry>
        </mxCell>
        <mxCell id="5BoTdSPKw78EXAaD1zw3-29" style="edgeStyle=orthogonalEdgeStyle;curved=1;rounded=0;orthogonalLoop=1;jettySize=auto;html=1;endArrow=none;endFill=0;" edge="1" parent="1" source="R_8RCk8jp2wtUIdCuoWz-1" target="R_8RCk8jp2wtUIdCuoWz-36">
          <mxGeometry relative="1" as="geometry">
            <Array as="points">
              <mxPoint x="480" y="530" />
              <mxPoint x="480" y="760" />
            </Array>
          </mxGeometry>
        </mxCell>
        <mxCell id="R_8RCk8jp2wtUIdCuoWz-1" value="Пользователь" style="shape=umlActor;verticalLabelPosition=bottom;verticalAlign=top;html=1;outlineConnect=0;" parent="1" vertex="1">
          <mxGeometry x="370" y="500" width="30" height="60" as="geometry" />
        </mxCell>
        <mxCell id="R_8RCk8jp2wtUIdCuoWz-4" value="Найти на карте города&lt;br&gt;место" style="ellipse;whiteSpace=wrap;html=1;" parent="1" vertex="1">
          <mxGeometry x="790" y="180" width="170" height="110" as="geometry" />
        </mxCell>
        <mxCell id="R_8RCk8jp2wtUIdCuoWz-5" value="Выбрать тип заведения" style="ellipse;whiteSpace=wrap;html=1;" parent="1" vertex="1">
          <mxGeometry x="560" y="520" width="167.5" height="100" as="geometry" />
        </mxCell>
        <mxCell id="o1isj-nAHH9bJfHxb-3l-5" style="edgeStyle=orthogonalEdgeStyle;rounded=0;orthogonalLoop=1;jettySize=auto;html=1;curved=1;" parent="1" source="R_8RCk8jp2wtUIdCuoWz-4" target="R_8RCk8jp2wtUIdCuoWz-25" edge="1">
          <mxGeometry relative="1" as="geometry">
            <Array as="points">
              <mxPoint x="840" y="380" />
            </Array>
          </mxGeometry>
        </mxCell>
        <mxCell id="5BoTdSPKw78EXAaD1zw3-25" value="extend" style="edgeLabel;html=1;align=center;verticalAlign=middle;resizable=0;points=[];" vertex="1" connectable="0" parent="o1isj-nAHH9bJfHxb-3l-5">
          <mxGeometry x="-0.2826" y="-2" relative="1" as="geometry">
            <mxPoint as="offset" />
          </mxGeometry>
        </mxCell>
        <mxCell id="R_8RCk8jp2wtUIdCuoWz-25" value="Найти место для постройки заведения общественного питания" style="ellipse;whiteSpace=wrap;html=1;" parent="1" vertex="1">
          <mxGeometry x="650" y="370" width="150" height="110" as="geometry" />
        </mxCell>
        <mxCell id="R_8RCk8jp2wtUIdCuoWz-28" value="Ввести конкретный адрес" style="ellipse;whiteSpace=wrap;html=1;" parent="1" vertex="1">
          <mxGeometry x="560" y="200" width="120" height="80" as="geometry" />
        </mxCell>
        <mxCell id="R_8RCk8jp2wtUIdCuoWz-30" value="extend" style="endArrow=classic;html=1;rounded=0;" parent="1" source="R_8RCk8jp2wtUIdCuoWz-28" edge="1" target="R_8RCk8jp2wtUIdCuoWz-25">
          <mxGeometry width="50" height="50" relative="1" as="geometry">
            <mxPoint x="600" y="400" as="sourcePoint" />
            <mxPoint x="730" y="330" as="targetPoint" />
          </mxGeometry>
        </mxCell>
        <mxCell id="5BoTdSPKw78EXAaD1zw3-26" style="edgeStyle=orthogonalEdgeStyle;curved=1;rounded=0;orthogonalLoop=1;jettySize=auto;html=1;endArrow=none;endFill=0;" edge="1" parent="1" source="R_8RCk8jp2wtUIdCuoWz-31" target="R_8RCk8jp2wtUIdCuoWz-25">
          <mxGeometry relative="1" as="geometry">
            <Array as="points">
              <mxPoint x="945" y="560" />
              <mxPoint x="770" y="560" />
            </Array>
          </mxGeometry>
        </mxCell>
        <mxCell id="5BoTdSPKw78EXAaD1zw3-28" style="edgeStyle=orthogonalEdgeStyle;curved=1;rounded=0;orthogonalLoop=1;jettySize=auto;html=1;endArrow=none;endFill=0;" edge="1" parent="1" source="R_8RCk8jp2wtUIdCuoWz-31" target="R_8RCk8jp2wtUIdCuoWz-1">
          <mxGeometry relative="1" as="geometry" />
        </mxCell>
        <mxCell id="R_8RCk8jp2wtUIdCuoWz-31" value="Получить результат &lt;br&gt;(процент успешности)" style="ellipse;whiteSpace=wrap;html=1;" parent="1" vertex="1">
          <mxGeometry x="830" y="610" width="150" height="100" as="geometry" />
        </mxCell>
        <mxCell id="R_8RCk8jp2wtUIdCuoWz-36" value="Сделать окончательный выбор" style="ellipse;whiteSpace=wrap;html=1;" parent="1" vertex="1">
          <mxGeometry x="640" y="780" width="120" height="80" as="geometry" />
        </mxCell>
        <mxCell id="5BoTdSPKw78EXAaD1zw3-2" value="" style="endArrow=none;html=1;rounded=0;" edge="1" parent="1" source="R_8RCk8jp2wtUIdCuoWz-1" target="R_8RCk8jp2wtUIdCuoWz-25">
          <mxGeometry width="50" height="50" relative="1" as="geometry">
            <mxPoint x="530" y="210" as="sourcePoint" />
            <mxPoint x="580" y="160" as="targetPoint" />
          </mxGeometry>
        </mxCell>
        <mxCell id="5BoTdSPKw78EXAaD1zw3-8" value="Написать отзыв" style="ellipse;whiteSpace=wrap;html=1;" vertex="1" parent="1">
          <mxGeometry x="400" y="830" width="120" height="80" as="geometry" />
        </mxCell>
        <mxCell id="5BoTdSPKw78EXAaD1zw3-9" value="" style="endArrow=none;html=1;rounded=0;endFill=0;" edge="1" parent="1" source="R_8RCk8jp2wtUIdCuoWz-1" target="5BoTdSPKw78EXAaD1zw3-8">
          <mxGeometry width="50" height="50" relative="1" as="geometry">
            <mxPoint x="940" y="650" as="sourcePoint" />
            <mxPoint x="990" y="600" as="targetPoint" />
            <Array as="points" />
          </mxGeometry>
        </mxCell>
        <mxCell id="5BoTdSPKw78EXAaD1zw3-31" value="extend" style="edgeStyle=orthogonalEdgeStyle;curved=1;rounded=0;orthogonalLoop=1;jettySize=auto;html=1;entryX=0.033;entryY=0.245;entryDx=0;entryDy=0;entryPerimeter=0;endArrow=none;endFill=0;" edge="1" parent="1" source="5BoTdSPKw78EXAaD1zw3-30" target="R_8RCk8jp2wtUIdCuoWz-25">
          <mxGeometry relative="1" as="geometry" />
        </mxCell>
        <mxCell id="5BoTdSPKw78EXAaD1zw3-30" value="Изменить радиус поиска" style="ellipse;whiteSpace=wrap;html=1;" vertex="1" parent="1">
          <mxGeometry x="390" y="300" width="120" height="80" as="geometry" />
        </mxCell>
      </root>
    </mxGraphModel>
  </diagram>
</mxfile>
